<svg width="114" height="100" viewBox="0 0 114 100" fill="none" xmlns="http://www.w3.org/2000/svg">
<path d="M112.721 86.1014L64.6358 4.39288C62.9974 1.63845 60.1479 0 56.9896 0C53.8552 0 50.9821 1.63845 49.3674 4.39288L1.28257 86.1014C-0.403416 88.9509 -0.427185 92.3703 1.21127 95.2435C2.82595 98.0455 5.69922 99.7315 8.90482 99.7315H105.098C108.304 99.7315 111.177 98.0455 112.768 95.2435C114.43 92.3703 114.406 88.9509 112.721 86.1014ZM52.0998 35.2748H60.1279V42.8425L58.4072 64.0211H53.8204L52.0998 42.8425V35.2748ZM59.1528 76.4574C58.3121 77.3177 57.3081 77.749 56.1428 77.749C54.9764 77.749 53.9723 77.3177 53.1317 76.4574C52.29 75.597 51.8702 74.5721 51.8702 73.3779C51.8702 72.1859 52.29 71.1587 53.1317 70.2983C53.9723 69.438 54.9764 69.0067 56.1428 69.0067C57.3081 69.0067 58.3121 69.438 59.1528 70.2983C59.9934 71.1587 60.4142 72.1859 60.4142 73.3779C60.4142 74.5721 59.9934 75.597 59.1528 76.4574Z" fill="#0B9933"/>
</svg>
