<svg width="37" height="37" viewBox="0 0 37 37" fill="none" xmlns="http://www.w3.org/2000/svg">
<mask id="mask0_1_53" style="mask-type:alpha" maskUnits="userSpaceOnUse" x="0" y="0" width="37" height="37">
<rect width="37" height="37" fill="#606060"/>
</mask>
<g mask="url(#mask0_1_53)">
<path d="M27.8913 5C25.6291 5 23.7826 6.84648 23.7826 9.1087C23.7826 10.1904 24.2078 11.1742 24.8958 11.9093L19.9823 17.913H13.1704C12.8833 15.9277 11.1712 14.3913 9.1087 14.3913C6.84648 14.3913 5 16.2378 5 18.5C5 20.7622 6.84648 22.6087 9.1087 22.6087C11.1712 22.6087 12.8833 21.0723 13.1704 19.087H19.9685L24.6837 25.3325C24.1211 26.0357 23.7826 26.9247 23.7826 27.8913C23.7826 30.1535 25.6291 32 27.8913 32C30.1535 32 32 30.1535 32 27.8913C32 25.6291 30.1535 23.7826 27.8913 23.7826C27.0198 23.7826 26.2121 24.0592 25.5458 24.5255L21.0072 18.5149L25.8106 12.643C26.4221 13.005 27.132 13.2174 27.8913 13.2174C30.1535 13.2174 32 11.3709 32 9.1087C32 6.84648 30.1535 5 27.8913 5ZM27.8913 6.17391C29.5191 6.17391 30.8261 7.48091 30.8261 9.1087C30.8261 10.7365 29.5191 12.0435 27.8913 12.0435C26.2635 12.0435 24.9565 10.7365 24.9565 9.1087C24.9565 7.48091 26.2635 6.17391 27.8913 6.17391ZM9.1087 15.5652C10.7365 15.5652 12.0435 16.8722 12.0435 18.5C12.0435 20.1278 10.7365 21.4348 9.1087 21.4348C7.48091 21.4348 6.17391 20.1278 6.17391 18.5C6.17391 16.8722 7.48091 15.5652 9.1087 15.5652ZM27.8913 24.9565C29.5191 24.9565 30.8261 26.2635 30.8261 27.8913C30.8261 29.5191 29.5191 30.8261 27.8913 30.8261C26.2635 30.8261 24.9565 29.5191 24.9565 27.8913C24.9565 26.2635 26.2635 24.9565 27.8913 24.9565Z" fill="black"/>
</g>
</svg>
