<svg width="95" height="122" viewBox="0 0 95 122" fill="none" xmlns="http://www.w3.org/2000/svg">
<mask id="mask0_568_19" style="mask-type:alpha" maskUnits="userSpaceOnUse" x="0" y="0" width="95" height="122">
<rect x="0.5" y="0.5" width="94" height="121" rx="9.5" fill="white" stroke="#C2EACD"/>
</mask>
<g mask="url(#mask0_568_19)">
<rect x="0.5" y="0.5" width="94" height="121" rx="9.5" fill="#242424" stroke="#434343"/>
<rect x="18" y="31" width="60" height="60" rx="10" fill="#333B36"/>
<rect x="37" y="31" width="1" height="60" rx="0.5" fill="#242424"/>
<rect x="57" y="31" width="1" height="60" rx="0.5" fill="#242424"/>
<rect x="77.5" y="50.5" width="1" height="60" rx="0.5" transform="rotate(90 77.5 50.5)" fill="#242424"/>
<rect x="77.5" y="70.5" width="1" height="60" rx="0.5" transform="rotate(90 77.5 70.5)" fill="#242424"/>
<mask id="path-8-inside-1_568_19" fill="white">
<path d="M0 10C0 4.47715 4.47715 0 10 0H85C90.5228 0 95 4.47715 95 10V18H0V10Z"/>
</mask>
<path d="M0 10C0 4.47715 4.47715 0 10 0H85C90.5228 0 95 4.47715 95 10V18H0V10Z" fill="#303030"/>
<path d="M-1 10C-1 3.92487 3.92487 -1 10 -1H85C91.0751 -1 96 3.92487 96 10H94C94 5.02944 89.9706 1 85 1H10C5.02944 1 1 5.02944 1 10H-1ZM95 18H0H95ZM-1 18V10C-1 3.92487 3.92487 -1 10 -1V1C5.02944 1 1 5.02944 1 10V18H-1ZM85 -1C91.0751 -1 96 3.92487 96 10V18H94V10C94 5.02944 89.9706 1 85 1V-1Z" fill="#434343" mask="url(#path-8-inside-1_568_19)"/>
<mask id="path-10-inside-2_568_19" fill="white">
<path d="M0 104H95V112C95 117.523 90.5228 122 85 122H10C4.47715 122 0 117.523 0 112V104Z"/>
</mask>
<path d="M0 104H95V112C95 117.523 90.5228 122 85 122H10C4.47715 122 0 117.523 0 112V104Z" fill="#303030"/>
<path d="M0 104H95H0ZM96 112C96 118.075 91.0751 123 85 123H10C3.92487 123 -1 118.075 -1 112H1C1 116.971 5.02944 121 10 121H85C89.9706 121 94 116.971 94 112H96ZM10 123C3.92487 123 -1 118.075 -1 112V104H1V112C1 116.971 5.02944 121 10 121V123ZM96 104V112C96 118.075 91.0751 123 85 123V121C89.9706 121 94 116.971 94 112V104H96Z" fill="#434343" mask="url(#path-10-inside-2_568_19)"/>
</g>
</svg>
