<svg width="37" height="37" viewBox="0 0 37 37" fill="none" xmlns="http://www.w3.org/2000/svg">
<mask id="mask0_1_56" style="mask-type:alpha" maskUnits="userSpaceOnUse" x="0" y="0" width="37" height="37">
<rect width="37" height="37" fill="#9C9C9C"/>
</mask>
<g mask="url(#mask0_1_56)">
<path d="M18.5 31C14.6978 31 12.0435 30.5833 10.6087 29.6667C10.3217 29.5 10.1065 29.4167 9.96304 29.4167C5.6587 29.25 3.50652 27.5 2.64565 26.4167C2.21522 25.9167 2 25.3333 2 24.5833C2 20.9167 2.14348 14.1667 2.71739 11.5833C3.00435 10.25 4.08043 9.33333 5.3 9.33333C6.51957 9.33333 8.38478 8 9.60435 6.75C10.1783 6.25 10.8239 6 11.4696 6H25.6022C26.3196 6 27.037 6.33333 27.4674 6.83333C28.4 7.83333 30.4087 9.33333 31.7 9.33333C32.9196 9.33333 33.9957 10.25 34.2826 11.5833C34.7848 13.8333 35 19.6667 35 24.5C35 25.25 34.7848 25.8333 34.3543 26.3333C33.4217 27.4167 31.3413 29.1667 27.037 29.3333C26.75 29.3333 26.5348 29.4167 26.463 29.5C25.1717 30.5 22.5174 31 18.5 31ZM9.96304 27.75C10.3217 27.75 10.7522 27.9167 11.2543 28.1667C11.9717 28.5833 13.7652 29.3333 18.5 29.3333C23.5217 29.3333 25.1717 28.5 25.6022 28.1667C25.9609 27.8333 26.463 27.6667 27.037 27.6667C30.9109 27.5 32.7761 25.8333 33.35 25.1667C33.4935 25 33.5652 24.75 33.5652 24.5C33.5652 19.9167 33.35 14.0833 32.8478 12.0833C32.7043 11.5 32.2022 11.0833 31.7 11.0833C29.763 11.0833 27.4674 9.16667 26.463 8.08333C26.1761 7.75 25.8174 7.75 25.6022 7.75H11.4696C11.1826 7.75 10.8239 7.91667 10.537 8.16667C10.1065 8.58333 7.52391 11 5.3 11C4.72609 11 4.29565 11.4167 4.15217 12C3.65 14.0833 3.43478 19.9167 3.43478 24.5833C3.43478 24.8333 3.50652 25.0833 3.65 25.25C4.22391 25.9167 6.08913 27.5833 9.96304 27.75ZM6.30435 12.6667H7.73913V17.6667H6.30435V12.6667ZM4.86957 16V14.3333H9.17391V16H4.86957ZM31.0543 12.6667C31.6283 12.6667 32.1304 13.25 32.1304 13.9167C32.1304 14.5833 31.6283 15.1667 31.0543 15.1667C30.4804 15.1667 29.9783 14.5833 29.9783 13.9167C29.9783 13.25 30.4804 12.6667 31.0543 12.6667ZM28.9022 15.1667C29.4761 15.1667 29.9783 15.75 29.9783 16.4167C29.9783 17.0833 29.4761 17.6667 28.9022 17.6667C28.3283 17.6667 27.8261 17.0833 27.8261 16.4167C27.8261 15.75 28.3283 15.1667 28.9022 15.1667ZM9.10217 21.75C9.24565 21.3333 9.10217 20.8333 8.81522 20.6667L6.66304 19.4167C6.30435 19.25 5.87391 19.4167 5.73043 19.75C5.58696 20.1667 5.73043 20.6667 6.01739 20.8333L8.16957 22.0833C8.2413 22.1667 8.38478 22.1667 8.45652 22.1667C8.74348 22.25 8.9587 22.0833 9.10217 21.75ZM9.10217 25.0833C9.24565 24.6667 9.10217 24.1667 8.81522 24L6.66304 22.75C6.30435 22.5833 5.87391 22.75 5.73043 23.0833C5.58696 23.5 5.73043 24 6.01739 24.1667L8.16957 25.4167C8.2413 25.5 8.38478 25.5 8.45652 25.5C8.74348 25.5833 8.9587 25.4167 9.10217 25.0833ZM24.2391 25.1667H12.7609C11.9 25.1667 11.3261 24.5 11.3261 23.5V12.6667C11.3261 11.6667 11.9 11 12.7609 11H24.2391C25.1 11 25.6739 11.6667 25.6739 12.6667V23.5C25.6739 24.5 25.1 25.1667 24.2391 25.1667ZM12.7609 12.6667V23.5H24.2391V12.6667H12.7609ZM28.3283 21.75L31.1978 20.0833C31.3413 20 31.413 19.75 31.3413 19.5C31.2696 19.3333 31.0543 19.25 30.8391 19.3333L27.9696 21C27.8261 21.0833 27.7543 21.3333 27.8261 21.5833C27.8978 21.75 28.0413 21.8333 28.113 21.8333C28.2565 21.8333 28.3283 21.8333 28.3283 21.75ZM28.3283 23.4167L31.1978 21.75C31.3413 21.6667 31.413 21.4167 31.3413 21.1667C31.2696 21 31.0543 20.9167 30.8391 21L27.9696 22.6667C27.8261 22.75 27.7543 23 27.8261 23.25C27.8978 23.4167 28.0413 23.5 28.113 23.5C28.2565 23.5 28.3283 23.5 28.3283 23.4167ZM28.3283 25.0833L31.1978 23.4167C31.3413 23.3333 31.413 23.0833 31.3413 22.8333C31.2696 22.6667 31.0543 22.5833 30.8391 22.6667L27.9696 24.3333C27.8261 24.4167 27.7543 24.6667 27.8261 24.9167C27.8978 25.0833 28.0413 25.1667 28.113 25.1667C28.2565 25.1667 28.3283 25.1667 28.3283 25.0833Z" fill="black"/>
</g>
</svg>
