<svg width="37" height="37" viewBox="0 0 37 37" fill="none" xmlns="http://www.w3.org/2000/svg">
<mask id="mask0_1_50" style="mask-type:alpha" maskUnits="userSpaceOnUse" x="0" y="0" width="37" height="37">
<rect width="37" height="37" fill="#9C9C9C"/>
</mask>
<g mask="url(#mask0_1_50)">
<path d="M33.4824 15.4325H32.0751C31.7262 13.8785 31.1199 12.4139 30.2687 11.0694L31.2632 10.0749C31.8549 9.48312 31.8549 8.52037 31.2632 7.92863L29.0713 5.73675C28.7847 5.45008 28.4036 5.29225 27.9982 5.29225C27.5928 5.29225 27.2117 5.45015 26.9251 5.73675L25.9306 6.73121C24.5861 5.88005 23.1215 5.27372 21.5675 4.92486V3.51761C21.5675 2.68079 20.8867 2 20.0499 2H16.9501C16.1133 2 15.4325 2.68079 15.4325 3.51761V4.92492C13.8785 5.27378 12.4139 5.88012 11.0694 6.73127L10.0749 5.73681C9.78832 5.45015 9.40718 5.29225 9.00181 5.29225C8.59645 5.29225 8.2153 5.45015 7.9287 5.73675L5.73681 7.9287C5.14507 8.52044 5.14507 9.48319 5.73681 10.0749L6.73133 11.0694C5.88018 12.414 5.27385 13.8785 4.92499 15.4325H3.51761C2.68079 15.4325 2 16.1133 2 16.9501V20.0499C2 20.8867 2.68079 21.5675 3.51761 21.5675H4.92499C5.27385 23.1215 5.88018 24.586 6.73133 25.9306L5.73681 26.9251C5.45021 27.2117 5.29231 27.5928 5.29231 27.9982C5.29231 28.4036 5.45021 28.7846 5.73681 29.0713L7.9287 31.2632C8.2153 31.5498 8.59645 31.7077 9.00181 31.7077C9.40718 31.7077 9.78832 31.5498 10.0749 31.2632L11.0694 30.2687C12.414 31.1198 13.8785 31.7261 15.4326 32.075V33.4824C15.4326 34.3192 16.1133 35 16.9502 35H20.05C20.8868 35 21.5676 34.3192 21.5676 33.4824V32.0751C23.1216 31.7262 24.5861 31.1199 25.9307 30.2687L26.9251 31.2632C27.2117 31.5499 27.5929 31.7077 27.9983 31.7077C28.4036 31.7077 28.7848 31.5499 29.0714 31.2632L31.2632 29.0714C31.5499 28.7848 31.7077 28.4036 31.7077 27.9983C31.7077 27.5929 31.5499 27.2117 31.2632 26.9251L30.2688 25.9307C31.1199 24.5861 31.7262 23.1217 32.0751 21.5676H33.4824C34.3192 21.5676 35 20.8868 35 20.05V16.9502C35 16.1133 34.3192 15.4325 33.4824 15.4325ZM34.0313 20.0499C34.0313 20.3526 33.7851 20.5988 33.4824 20.5988H31.6817C31.4499 20.5988 31.2507 20.7631 31.2064 20.9905C30.8744 22.694 30.215 24.2867 29.2465 25.7244C29.117 25.9165 29.1418 26.1736 29.3057 26.3374L30.5783 27.6099C30.6819 27.7137 30.7391 27.8515 30.7391 27.9981C30.7391 28.1447 30.682 28.2826 30.5783 28.3862L28.3864 30.5781C28.2827 30.6818 28.1448 30.7389 27.9982 30.7389C27.8515 30.7389 27.7137 30.6818 27.6101 30.5781L26.3375 29.3055C26.1736 29.1416 25.9165 29.1168 25.7244 29.2463C24.2866 30.2149 22.6939 30.8742 20.9905 31.2062C20.763 31.2505 20.5988 31.4498 20.5988 31.6815V33.4824C20.5988 33.7851 20.3526 34.0313 20.0499 34.0313H16.9501C16.6474 34.0313 16.4012 33.7851 16.4012 33.4824V31.6817C16.4012 31.4499 16.237 31.2507 16.0095 31.2064C14.3061 30.8744 12.7133 30.215 11.2756 29.2465C11.1932 29.191 11.099 29.1638 11.0052 29.1638C10.8802 29.1638 10.7562 29.2121 10.6625 29.3057L9.38993 30.5783C9.28628 30.682 9.14847 30.7391 9.00181 30.7391C8.85515 30.7391 8.71734 30.682 8.61363 30.5783L6.42174 28.3864C6.31809 28.2827 6.26094 28.1448 6.26094 27.9983C6.26094 27.8516 6.31803 27.7138 6.42174 27.6101L7.69434 26.3375C7.85824 26.1736 7.88304 25.9166 7.75356 25.7244C6.785 24.2867 6.12565 22.694 5.79371 20.9906C5.74934 20.7631 5.55012 20.5989 5.31834 20.5989H3.51761C3.21493 20.5989 2.96869 20.3527 2.96869 20.05V16.9502C2.96869 16.6475 3.21493 16.4012 3.51761 16.4012H5.31828C5.55005 16.4012 5.74934 16.237 5.79364 16.0096C6.12558 14.3062 6.785 12.7134 7.7535 11.2757C7.88298 11.0835 7.85818 10.8265 7.69428 10.6627L6.42174 9.38993C6.20773 9.17592 6.20773 8.82764 6.42174 8.61363L8.61363 6.42174C8.71728 6.31809 8.85515 6.26094 9.00181 6.26094C9.14847 6.26094 9.28628 6.31803 9.38993 6.42174L10.6625 7.69428C10.8264 7.85811 11.0833 7.88298 11.2756 7.7535C12.7133 6.785 14.306 6.12558 16.0095 5.79364C16.2369 5.74928 16.4012 5.55005 16.4012 5.31821V3.51761C16.4012 3.21493 16.6474 2.96869 16.9501 2.96869H20.0499C20.3526 2.96869 20.5988 3.21493 20.5988 3.51761V5.31828C20.5988 5.55005 20.7631 5.74934 20.9905 5.79371C22.6939 6.12565 24.2866 6.785 25.7244 7.75356C25.9167 7.88304 26.1737 7.85824 26.3375 7.69434L27.6101 6.42181C27.7138 6.31816 27.8516 6.261 27.9983 6.261C28.1449 6.261 28.2827 6.31809 28.3864 6.42181L30.5783 8.61369C30.7923 8.82771 30.7923 9.17598 30.5783 9.39L29.3058 10.6625C29.1419 10.8264 29.1171 11.0834 29.2466 11.2756C30.2151 12.7134 30.8745 14.3061 31.2064 16.0095C31.2507 16.237 31.45 16.4012 31.6818 16.4012H33.4824C33.7851 16.4012 34.0313 16.6474 34.0313 16.9501V20.0499Z" fill="black"/>
<path d="M9.68494 18.5C9.68494 13.6394 13.6394 9.68494 18.5 9.68494C19.6897 9.68494 20.8437 9.91774 21.9297 10.3769C22.176 10.4811 22.4603 10.3658 22.5644 10.1194C22.6686 9.87306 22.5533 9.58884 22.3069 9.48468C21.1009 8.97482 19.8201 8.71625 18.5 8.71625C13.1052 8.71625 8.71625 13.1052 8.71625 18.5C8.71625 20.7344 9.4892 22.9196 10.8927 24.6528C10.9884 24.771 11.1283 24.8324 11.2694 24.8324C11.3765 24.8324 11.4842 24.7971 11.5739 24.7244C11.7818 24.5561 11.8139 24.2511 11.6455 24.0432C10.3812 22.4819 9.68494 20.5133 9.68494 18.5Z" fill="black"/>
<path d="M26.8823 14.4388C26.6358 14.5429 26.5204 14.827 26.6245 15.0735C27.0827 16.1586 27.3151 17.3115 27.3151 18.5C27.3151 23.3606 23.3607 27.315 18.5 27.315C16.4876 27.315 14.5196 26.6193 12.9586 25.3559C12.7507 25.1876 12.4458 25.2197 12.2774 25.4277C12.1092 25.6357 12.1413 25.9406 12.3492 26.1089C14.0821 27.5114 16.2665 28.2837 18.5 28.2837C23.8948 28.2837 28.2838 23.8947 28.2838 18.5C28.2838 17.1813 28.0257 15.9017 27.5169 14.6966C27.4128 14.4502 27.1286 14.3348 26.8823 14.4388Z" fill="black"/>
<path d="M24.0404 11.6432C24.5234 12.0341 24.9665 12.4772 25.3574 12.9604C25.4531 13.0787 25.5931 13.1401 25.7342 13.1401C25.8412 13.1401 25.9489 13.1048 26.0385 13.0323C26.2465 12.8641 26.2787 12.5591 26.1105 12.3511C25.677 11.8152 25.1854 11.3237 24.6496 10.8902C24.4417 10.7219 24.1367 10.7541 23.9684 10.962C23.8002 11.17 23.8324 11.475 24.0404 11.6432Z" fill="black"/>
<path d="M18.5 10.7828C14.2447 10.7828 10.7828 14.2447 10.7828 18.5C10.7828 22.7553 14.2447 26.2172 18.5 26.2172C22.7553 26.2172 26.2172 22.7553 26.2172 18.5C26.2172 14.2447 22.7553 10.7828 18.5 10.7828ZM18.5 25.2485C14.7788 25.2485 11.7515 22.2212 11.7515 18.5C11.7515 14.7788 14.7788 11.7515 18.5 11.7515C22.2212 11.7515 25.2485 14.7789 25.2485 18.5C25.2485 22.2211 22.2212 25.2485 18.5 25.2485Z" fill="black"/>
</g>
</svg>
