<svg width="114" height="114" viewBox="0 0 114 114" fill="none" xmlns="http://www.w3.org/2000/svg">
<rect x="2" y="2" width="110" height="110" rx="8" stroke="black" stroke-width="4"/>
<rect x="37" width="4" height="114" rx="2" fill="black"/>
<rect x="74" width="4" height="114" rx="2" fill="black"/>
<rect x="113.5" y="36.5" width="4" height="113" rx="2" transform="rotate(90 113.5 36.5)" fill="black"/>
<rect x="114" y="73.5" width="4" height="113" rx="2" transform="rotate(90 114 73.5)" fill="black"/>
<rect x="48" y="12.8284" width="4" height="24" rx="2" transform="rotate(-45 48 12.8284)" fill="black"/>
<rect x="65" y="10" width="4" height="24" rx="2" transform="rotate(45 65 10)" fill="black"/>
<rect x="48" y="49.8284" width="4" height="24" rx="2" transform="rotate(-45 48 49.8284)" fill="black"/>
<rect x="65" y="47" width="4" height="24" rx="2" transform="rotate(45 65 47)" fill="black"/>
<rect x="48" y="86.8284" width="4" height="24" rx="2" transform="rotate(-45 48 86.8284)" fill="black"/>
<rect x="65" y="84" width="4" height="24" rx="2" transform="rotate(45 65 84)" fill="black"/>
<rect x="10" y="86.8284" width="4" height="24" rx="2" transform="rotate(-45 10 86.8284)" fill="black"/>
<rect x="27" y="84" width="4" height="24" rx="2" transform="rotate(45 27 84)" fill="black"/>
<rect x="13" y="12" width="15" height="15" rx="7.5" stroke="black" stroke-width="4"/>
<rect x="13" y="49" width="15" height="15" rx="7.5" stroke="black" stroke-width="4"/>
<rect x="87" y="49" width="15" height="15" rx="7.5" stroke="black" stroke-width="4"/>
</svg>
